<?xml version="1.0" encoding="utf-8"?>
<!-- Generator: Adobe Illustrator 16.0.0, SVG Export Plug-In . SVG Version: 6.00 Build 0)  -->
<!DOCTYPE svg PUBLIC "-//W3C//DTD SVG 1.1//EN" "http://www.w3.org/Graphics/SVG/1.1/DTD/svg11.dtd">
<svg version="1.1" id="Capa_1" xmlns="http://www.w3.org/2000/svg" xmlns:xlink="http://www.w3.org/1999/xlink" x="0px" y="0px"
	 width="1500px" height="1500px" viewBox="0 0 1500 1500" enable-background="new 0 0 1500 1500" xml:space="preserve">
<path fill="#652C8F" d="M849.842,384.575c-1.991,5,7.875,14.875,8.375,22.657c8.146,130.625,25.125,869.628,25.125,869.628
	s18.295,136.968-201.912,73.752c-220.194-63.244-429.688-299.902-442.329-340.813c0,0-17.859-41.667,36.454-40.912
	c54.302,0.75,524.455-3.473,591.908-11.42c67.454-7.926,292.23-19.813,315.037-162.667
	c35.328-221.256-183.055-709.888-360.161-778.145c-155.001-59.73-282.66,44.63-293.089,251.376
	c-4.994,98.974-30.828,637.253,11.25,1170.345c2.479,31.124,143.431,71.374,150.806,59.427c4.751-7.597-7.069-22.697-7.007-44.623
	c0.417-135.883-42.681-950.787-24.089-1184.202C680.289,16.794,716.688,7.932,809.789,44.989
	c102.239,40.764,247.71,213.145,267.834,674.851c6.057,139.484-139.212,121.824-210.73,132.66
	c-148.408,22.368-451.237-1.646-604.394,1.67C230.569,854.86,71.7,885.185,156.5,994.5c84,124,347.63,338.349,541.88,383.001
	c194.158,44.625,320.605,16.287,316.12-119.81c-4.466-136.136-49.479-833.301-57.902-849.167
	c-7.455-14.017-102.974-33.266-106.724-23.949H849.842L849.842,384.575z"/>
</svg>
